<svg width="50" height="50" viewBox="0 0 50 50" fill="none" xmlns="http://www.w3.org/2000/svg">
    <path d="M30.667 18.3126L21.7295 27.2709L18.292 23.8334C18.1052 23.6153 17.8754 23.4382 17.6169 23.3132C17.3585 23.1881 17.0769 23.1178 16.79 23.1068C16.5031 23.0957 16.217 23.144 15.9497 23.2488C15.6823 23.3535 15.4395 23.5124 15.2365 23.7154C15.0335 23.9184 14.8746 24.1612 14.7698 24.4286C14.6651 24.6959 14.6168 24.982 14.6278 25.2689C14.6389 25.5559 14.7092 25.8374 14.8342 26.0959C14.9593 26.3543 15.1364 26.5842 15.3545 26.7709L20.2503 31.6876C20.445 31.8807 20.6759 32.0334 20.9297 32.1371C21.1835 32.2408 21.4553 32.2933 21.7295 32.2917C22.276 32.2894 22.7998 32.0725 23.1878 31.6876L33.6045 21.2709C33.7998 21.0772 33.9548 20.8468 34.0605 20.5929C34.1663 20.3391 34.2208 20.0668 34.2208 19.7917C34.2208 19.5167 34.1663 19.2444 34.0605 18.9905C33.9548 18.7367 33.7998 18.5063 33.6045 18.3126C33.2142 17.9246 32.6861 17.7068 32.1358 17.7068C31.5854 17.7068 31.0573 17.9246 30.667 18.3126ZM25.0003 4.16675C20.8799 4.16675 16.852 5.3886 13.426 7.6778C9.99993 9.96699 7.32967 13.2207 5.75284 17.0275C4.17602 20.8343 3.76345 25.0232 4.56731 29.0645C5.37117 33.1057 7.35535 36.8179 10.2689 39.7315C13.1825 42.6451 16.8947 44.6292 20.936 45.4331C24.9772 46.237 29.1661 45.8244 32.9729 44.2476C36.7797 42.6707 40.0334 40.0005 42.3226 36.5745C44.6118 33.1484 45.8337 29.1205 45.8337 25.0001C45.8337 22.2642 45.2948 19.5551 44.2478 17.0275C43.2009 14.4999 41.6663 12.2032 39.7317 10.2687C37.7972 8.33414 35.5005 6.79956 32.9729 5.75259C30.4453 4.70562 27.7362 4.16675 25.0003 4.16675ZM25.0003 41.6667C21.704 41.6667 18.4817 40.6893 15.7408 38.8579C13 37.0266 10.8638 34.4236 9.60234 31.3781C8.34088 28.3327 8.01083 24.9816 8.65391 21.7486C9.297 18.5156 10.8843 15.5458 13.2152 13.215C15.5461 10.8841 18.5158 9.29675 21.7488 8.65366C24.9818 8.01057 28.333 8.34063 31.3784 9.60209C34.4238 10.8635 37.0268 12.9998 38.8582 15.7406C40.6895 18.4814 41.667 21.7037 41.667 25.0001C41.667 29.4204 39.9111 33.6596 36.7854 36.7852C33.6598 39.9108 29.4206 41.6667 25.0003 41.6667Z"
          fill="black"/>
</svg>
