<svg width="50" height="50" viewBox="0 0 50 50" fill="none" xmlns="http://www.w3.org/2000/svg">
    <path d="M41.6669 16.6666L29.1669 5.70822C28.021 4.68332 26.5376 4.1167 25.0002 4.1167C23.4628 4.1167 21.9794 4.68332 20.8335 5.70822L8.33353 16.6666C7.6718 17.2584 7.14374 17.9844 6.78451 18.7962C6.42529 19.6081 6.24314 20.4871 6.2502 21.3749V39.5832C6.2502 41.2408 6.90868 42.8305 8.08078 44.0026C9.25288 45.1747 10.8426 45.8332 12.5002 45.8332H37.5002C39.1578 45.8332 40.7475 45.1747 41.9196 44.0026C43.0917 42.8305 43.7502 41.2408 43.7502 39.5832V21.3541C43.7543 20.4698 43.5707 19.5948 43.2116 18.7867C42.8525 17.9787 42.326 17.256 41.6669 16.6666ZM29.1669 41.6666H20.8335V31.2499C20.8335 30.6974 21.053 30.1675 21.4437 29.7768C21.8344 29.3861 22.3643 29.1666 22.9169 29.1666H27.0835C27.6361 29.1666 28.166 29.3861 28.5567 29.7768C28.9474 30.1675 29.1669 30.6974 29.1669 31.2499V41.6666ZM39.5835 39.5832C39.5835 40.1358 39.364 40.6657 38.9733 41.0564C38.5826 41.4471 38.0527 41.6666 37.5002 41.6666H33.3335V31.2499C33.3335 29.5923 32.6751 28.0026 31.503 26.8305C30.3308 25.6584 28.7411 24.9999 27.0835 24.9999H22.9169C21.2593 24.9999 19.6695 25.6584 18.4974 26.8305C17.3253 28.0026 16.6669 29.5923 16.6669 31.2499V41.6666H12.5002C11.9477 41.6666 11.4178 41.4471 11.0271 41.0564C10.6364 40.6657 10.4169 40.1358 10.4169 39.5832V21.3541C10.4172 21.0583 10.4806 20.7659 10.6027 20.4965C10.7249 20.2271 10.903 19.9868 11.1252 19.7916L23.6252 8.85406C24.0054 8.52006 24.4941 8.33586 25.0002 8.33586C25.5063 8.33586 25.995 8.52006 26.3752 8.85406L38.8752 19.7916C39.0974 19.9868 39.2755 20.2271 39.3977 20.4965C39.5198 20.7659 39.5832 21.0583 39.5835 21.3541V39.5832Z"
          fill="black"/>
</svg>
