<svg width="50" height="50" viewBox="0 0 50 50" fill="none" xmlns="http://www.w3.org/2000/svg">
    <path d="M25 23.521L32.375 30.896C32.7653 31.284 33.2933 31.5018 33.8437 31.5018C34.3941 31.5018 34.9221 31.284 35.3125 30.896C35.5077 30.7023 35.6627 30.4719 35.7685 30.218C35.8743 29.9641 35.9287 29.6918 35.9287 29.4168C35.9287 29.1418 35.8743 28.8695 35.7685 28.6156C35.6627 28.3617 35.5077 28.1313 35.3125 27.9376L26.4791 19.1043C26.2855 18.909 26.055 18.754 25.8012 18.6483C25.5473 18.5425 25.275 18.488 25 18.488C24.7249 18.488 24.4526 18.5425 24.1988 18.6483C23.9449 18.754 23.7145 18.909 23.5208 19.1043L14.5833 27.9376C14.3902 28.1323 14.2375 28.3632 14.1338 28.617C14.0301 28.8708 13.9775 29.1426 13.9791 29.4168C13.9775 29.691 14.0301 29.9628 14.1338 30.2166C14.2375 30.4704 14.3902 30.7013 14.5833 30.896C14.9736 31.284 15.5017 31.5018 16.052 31.5018C16.6024 31.5018 17.1305 31.284 17.5208 30.896L25 23.521Z"
          fill="black"/>
</svg>
