<svg width="50" height="50" viewBox="0 0 50 50" fill="none" xmlns="http://www.w3.org/2000/svg">
    <path d="M25 33.3333C24.5879 33.3333 24.1851 33.4555 23.8425 33.6844C23.4999 33.9134 23.2329 34.2387 23.0752 34.6194C22.9175 35.0001 22.8763 35.419 22.9567 35.8231C23.0371 36.2272 23.2355 36.5984 23.5268 36.8898C23.8182 37.1812 24.1894 37.3796 24.5935 37.46C24.9977 37.5403 25.4166 37.4991 25.7972 37.3414C26.1779 37.1837 26.5033 36.9167 26.7322 36.5741C26.9611 36.2315 27.0833 35.8287 27.0833 35.4167C27.0833 34.8641 26.8638 34.3342 26.4731 33.9435C26.0824 33.5528 25.5525 33.3333 25 33.3333ZM47.2291 36.3958L30.4583 7.22916C29.9162 6.25732 29.1245 5.44782 28.165 4.88431C27.2054 4.32079 26.1128 4.02368 25 4.02368C23.8872 4.02368 22.7946 4.32079 21.835 4.88431C20.8754 5.44782 20.0837 6.25732 19.5416 7.22916L2.87497 36.3958C2.31413 37.3417 2.01277 38.4188 2.00132 39.5184C1.98986 40.618 2.26872 41.7011 2.80974 42.6584C3.35075 43.6158 4.13477 44.4134 5.08265 44.9709C6.03052 45.5283 7.10869 45.8258 8.20831 45.8333H41.7916C42.9001 45.8442 43.9915 45.5602 44.9539 45.0102C45.9164 44.4603 46.7153 43.6643 47.2687 42.7038C47.8221 41.7433 48.1101 40.6529 48.1031 39.5445C48.0962 38.436 47.7945 37.3493 47.2291 36.3958ZM43.625 40.5625C43.4424 40.8874 43.1759 41.1574 42.8535 41.3442C42.531 41.5311 42.1643 41.6281 41.7916 41.625H8.20831C7.83562 41.6281 7.46893 41.5311 7.14647 41.3442C6.82401 41.1574 6.55758 40.8874 6.37497 40.5625C6.19212 40.2458 6.09586 39.8865 6.09586 39.5208C6.09586 39.1551 6.19212 38.7959 6.37497 38.4792L23.0416 9.31249C23.2165 8.97124 23.4821 8.68486 23.8092 8.48488C24.1364 8.2849 24.5124 8.17908 24.8958 8.17908C25.2792 8.17908 25.6552 8.2849 25.9824 8.48488C26.3095 8.68486 26.5751 8.97124 26.75 9.31249L43.5208 38.4792C43.7275 38.7913 43.8463 39.1534 43.8646 39.5274C43.8829 39.9013 43.8002 40.2733 43.625 40.6042V40.5625ZM25 16.6667C24.4474 16.6667 23.9175 16.8862 23.5268 17.2769C23.1361 17.6676 22.9166 18.1975 22.9166 18.75V27.0833C22.9166 27.6359 23.1361 28.1658 23.5268 28.5565C23.9175 28.9472 24.4474 29.1667 25 29.1667C25.5525 29.1667 26.0824 28.9472 26.4731 28.5565C26.8638 28.1658 27.0833 27.6359 27.0833 27.0833V18.75C27.0833 18.1975 26.8638 17.6676 26.4731 17.2769C26.0824 16.8862 25.5525 16.6667 25 16.6667Z"
          fill="black"/>
</svg>
